<svg class='nodejs' width="120" height="120" viewBox="0 0 127 120" fill="none" xmlns="http://www.w3.org/2000/svg">
<g filter="url(#filter0_d)">
<path d="M63.1053 98.7691C62.7364 98.7691 62.3693 98.6337 62.0466 98.3717L58.6758 95.574C58.1727 95.1787 58.4185 95.039 58.5843 94.9579C59.2559 94.631 59.3916 94.5555 60.1082 93.9851C60.1828 93.9263 60.2818 93.9486 60.3589 94.0121L62.9484 96.1688C63.0424 96.2419 63.1748 96.2419 63.2612 96.1688L73.3568 87.9937C73.4508 87.9186 73.511 87.7668 73.511 87.6105V71.2653C73.511 71.1054 73.4506 70.9561 73.3543 70.875L63.263 62.7069C63.17 62.6304 63.046 62.6304 62.952 62.7069L52.8629 70.8771C52.7649 70.9558 52.7027 71.11 52.7027 71.2653V87.6105C52.7027 87.7668 52.7647 87.915 52.8619 87.9891L55.6276 90.231C57.128 91.2835 58.0468 90.0438 58.0468 88.7984V72.6602C58.0468 72.4323 58.1777 72.2522 58.3402 72.2522H59.6203C59.7805 72.2522 59.9129 72.4323 59.9129 72.6602V88.7981C59.9129 91.6078 58.8223 93.219 56.9236 93.219C56.3402 93.219 55.8808 93.219 54.5981 92.3324L51.9508 90.1945C51.2968 89.6641 50.892 88.6726 50.892 87.6105V71.2653C50.892 70.2032 51.2968 69.2116 51.9508 68.6838L62.0463 60.4995C62.6851 59.9925 63.5344 59.9925 64.1681 60.4995L74.263 68.6838C74.9169 69.2141 75.3235 70.2032 75.3235 71.2653V87.6105C75.3235 88.6726 74.9169 89.6602 74.263 90.1945L64.1681 98.3717C63.8455 98.6337 63.4793 98.7691 63.1053 98.7691Z" fill="#699F63"/>
<path d="M66.2238 87.5081C61.8061 87.5081 60.8805 84.6632 60.8805 82.2771C60.8805 82.0502 61.0103 81.8691 61.1723 81.8691H62.4774C62.6232 81.8691 62.7448 82.0162 62.7675 82.2161C62.9646 84.0801 63.5521 85.0209 66.2238 85.0209C68.3506 85.0209 69.256 84.346 69.256 82.7628C69.256 81.8503 68.9995 81.1728 65.6941 80.7187C62.932 80.3355 61.2234 79.479 61.2234 76.3789C61.2234 73.521 62.9401 71.8169 65.819 71.8169C69.0531 71.8169 70.6534 73.3916 70.8563 76.7707C70.8639 76.8869 70.8345 76.999 70.7792 77.0858C70.7239 77.167 70.6468 77.2163 70.5654 77.2163H69.2553C69.1196 77.2163 68.9995 77.0809 68.972 76.8965C68.6576 74.9347 67.893 74.308 65.8192 74.308C63.497 74.308 63.2272 75.4431 63.2272 76.2932C63.2272 77.3233 63.5458 77.6232 66.6811 78.2053C69.7836 78.7803 71.2573 79.5953 71.2573 82.6546C71.257 85.7406 69.4228 87.5081 66.2238 87.5081Z" fill="#699F63"/>
<path d="M80.7813 70.3663C80.7813 71.8684 79.906 73.096 78.8356 73.096C77.775 73.096 76.8899 71.8829 76.8899 70.3663C76.8899 68.8211 77.796 67.636 78.8356 67.636C79.886 67.636 80.7813 68.8207 80.7813 70.3663ZM77.2042 70.3585C77.2042 71.6298 77.9353 72.6553 78.8305 72.6553C79.7367 72.6553 80.4677 71.6082 80.4677 70.3585C80.4677 69.0877 79.7268 68.077 78.8305 68.077C77.9454 68.077 77.2042 69.0731 77.2042 70.3585ZM78.1046 68.8349H78.8566C79.1138 68.8349 79.6187 68.8349 79.6187 69.6442C79.6187 70.2075 79.3614 70.3227 79.2063 70.3951C79.5055 70.4241 79.5257 70.6985 79.5666 71.0885C79.5876 71.3338 79.6187 71.7531 79.6798 71.8971H79.2171C79.2063 71.7531 79.1343 70.9725 79.1343 70.9296C79.1042 70.7559 79.0622 70.6698 78.9078 70.6698H78.5273V71.8971H78.1048V68.8349H78.1046V68.8349ZM78.5169 70.1781H78.8566C79.134 70.1781 79.1861 69.9041 79.1861 69.7453C79.1861 69.3259 78.9799 69.3259 78.8667 69.3259H78.5172L78.5169 70.1781Z" fill="#699F63"/>
<path d="M31.8425 34.8197C31.8425 34.1671 31.5976 33.5672 31.1961 33.2436L20.4925 24.6016C20.3116 24.4524 20.1085 24.3747 19.9033 24.3627C19.8848 24.3627 19.8078 24.3627 19.7926 24.3627C19.5879 24.3744 19.3853 24.452 19.2016 24.6016L8.49802 33.2436C8.09903 33.5669 7.85089 34.1667 7.85089 34.8197L7.87439 58.0894C7.87439 58.4127 7.99416 58.714 8.19707 58.8728C8.39568 59.0398 8.64129 59.0398 8.83915 58.8728L15.2003 53.7627C15.6026 53.4277 15.8474 52.836 15.8474 52.1891V41.3173C15.8474 40.6693 16.0923 40.0695 16.4928 39.7472L19.2013 37.5585C19.4032 37.3951 19.6238 37.315 19.8495 37.315C20.0698 37.315 20.2962 37.3951 20.4923 37.5585L23.2001 39.7472C23.6008 40.0695 23.8464 40.6693 23.8464 41.3173V52.1891C23.8464 52.836 24.0946 53.4312 24.4946 53.7627L30.8539 58.8728C31.0536 59.0398 31.3025 59.0398 31.5003 58.8728C31.6974 58.714 31.8215 58.413 31.8215 58.0894L31.8425 34.8197Z" fill="#333333"/>
<path d="M83.3442 2.83141C83.1439 2.67507 82.8995 2.67862 82.7017 2.84133C82.5043 3.0044 82.3828 3.30183 82.3828 3.62336V26.6679C82.3828 26.8945 82.2963 27.1043 82.1569 27.2178C82.0169 27.3312 81.844 27.3312 81.7041 27.2178L79.0233 25.0507C78.6233 24.7274 78.1313 24.7281 77.7316 25.0514L67.0237 33.7207C66.6235 34.0447 66.3771 34.6435 66.3771 35.2915V52.6339C66.3771 53.282 66.6235 53.8807 67.0235 54.2051L77.7308 62.8811C78.1311 63.2051 78.6241 63.2051 79.0243 62.8811L89.7332 54.2051C90.1332 53.8804 90.3795 53.282 90.3795 52.6339V9.40382C90.3795 8.74623 90.1258 8.14003 89.7165 7.81957L83.3442 2.83141ZM82.3507 46.9361C82.3507 47.0977 82.289 47.2477 82.189 47.3282L78.5126 50.3013C78.4128 50.3818 78.2897 50.3818 78.1899 50.3013L74.5134 47.3282C74.4133 47.2477 74.3516 47.0977 74.3516 46.9361V40.9805C74.3516 40.8188 74.4133 40.6689 74.5131 40.5877L78.1894 37.6088C78.2895 37.5277 78.4128 37.5277 78.5129 37.6088L82.1892 40.5877C82.289 40.6689 82.3507 40.8188 82.3507 40.9805V46.9361Z" fill="#333333"/>
<path d="M118.999 40.8246C119.397 40.4998 119.642 39.9025 119.642 39.2562V35.0537C119.642 34.4074 119.397 33.8094 118.999 33.4846L108.36 24.8186C107.959 24.4921 107.465 24.4917 107.064 24.8161L96.3604 33.4854C95.9604 33.8094 95.714 34.4081 95.714 35.0561V52.394C95.714 53.0463 95.9634 53.6475 96.3672 53.9701L107.005 62.4738C107.397 62.7879 107.878 62.7914 108.273 62.4837L114.706 57.4665C114.911 57.3073 115.038 57.0067 115.039 56.6799C115.04 56.353 114.916 56.0503 114.714 55.8872L103.942 47.2137C103.741 47.052 103.618 46.7514 103.618 46.4267V40.9933C103.618 40.6693 103.741 40.3694 103.941 40.2077L107.294 37.4962C107.493 37.3345 107.74 37.3345 107.939 37.4962L111.293 40.2077C111.494 40.3694 111.617 40.6693 111.617 40.9933V45.2682C111.617 45.5929 111.74 45.8928 111.941 46.0545C112.141 46.2168 112.388 46.2154 112.588 46.0527L118.999 40.8246Z" fill="#333333"/>
<path d="M107.554 40.0125C107.631 39.9501 107.725 39.9501 107.802 40.0125L109.857 41.6754C109.934 41.7378 109.981 41.8523 109.981 41.9771V45.3055C109.981 45.4303 109.934 45.5448 109.857 45.6072L107.802 47.2702C107.725 47.3325 107.631 47.3325 107.554 47.2702L105.501 45.6072C105.424 45.5448 105.377 45.4303 105.377 45.3055V41.9771C105.377 41.8523 105.424 41.7378 105.501 41.6754L107.554 40.0125Z" fill="#699F63"/>
<path d="M48.4675 24.9064C48.8642 24.5849 49.3532 24.5849 49.7499 24.9064L60.3703 33.5048C60.7675 33.8263 61.0119 34.4201 61.0119 35.0635V52.2731C61.0119 52.9158 60.7675 53.5099 60.3706 53.8318L49.7502 62.4369C49.3532 62.7584 48.864 62.7584 48.467 62.4369L37.8489 53.8318C37.4522 53.5099 37.2078 52.9161 37.2078 52.2731V35.0628C37.2078 34.4201 37.4524 33.826 37.8494 33.5048L48.4675 24.9064Z" fill="url(#paint0_linear)"/>
<path opacity="0.66" d="M60.3164 33.5038L49.7433 24.9054C49.6374 24.8197 49.5242 24.7587 49.4079 24.7186L37.4566 53.4001C37.5572 53.5703 37.6785 53.7177 37.8175 53.8305L48.4541 62.4356C48.7712 62.6922 49.1381 62.7405 49.4754 62.5873L60.6411 33.9034C60.5537 33.747 60.4468 33.6095 60.3164 33.5038Z" fill="#B4B4B4"/>
<path d="M49.7246 62.4365L60.3197 53.8314C60.7164 53.5095 60.9102 52.9157 60.9102 52.2727V52.2053L49.4484 24.7341C49.1181 24.6043 48.7578 24.6607 48.4546 24.9064L37.9446 33.4073L49.3776 62.6279C49.4971 62.5879 49.6141 62.5262 49.7246 62.4365Z" fill="url(#paint1_linear)"/>
</g>
<defs>
<filter id="filter0_d" x="-1" y="-1" width="134" height="134" filterUnits="userSpaceOnUse" color-interpolation-filters="sRGB">
<feFlood flood-opacity="0" result="BackgroundImageFix"/>
<feColorMatrix in="SourceAlpha" type="matrix" values="0 0 0 0 0 0 0 0 0 0 0 0 0 0 0 0 0 0 127 0"/>
<feOffset dy="6"/>
<feGaussianBlur stdDeviation="3.5"/>
<feColorMatrix type="matrix" values="0 0 0 0 0 0 0 0 0 0.278431 0 0 0 0 0.819608 0 0 0 0.25 0"/>
<feBlend mode="normal" in2="BackgroundImageFix" result="effect1_dropShadow"/>
<feBlend mode="normal" in="SourceGraphic" in2="effect1_dropShadow" result="shape"/>
</filter>
<linearGradient id="paint0_linear" x1="37.2078" y1="43.6717" x2="61.0119" y2="43.6717" gradientUnits="userSpaceOnUse">
<stop offset="0.0053"/>
<stop offset="0.1938" stop-color="#171717"/>
<stop offset="0.5423" stop-color="#3D3D3D"/>
<stop offset="0.8235" stop-color="#545454"/>
<stop offset="1" stop-color="#5C5C5C"/>
</linearGradient>
<linearGradient id="paint1_linear" x1="37.043" y1="43.6472" x2="61.5985" y2="43.6472" gradientUnits="userSpaceOnUse">
<stop stop-color="#5C5C5C"/>
<stop offset="0.1765" stop-color="#545454"/>
<stop offset="0.4577" stop-color="#3D3D3D"/>
<stop offset="0.8062" stop-color="#171717"/>
<stop offset="0.9947"/>
</linearGradient>
</defs>
</svg>
