<svg class='postgresql' width="120" height="120" viewBox="0 0 120 126" fill="none" xmlns="http://www.w3.org/2000/svg">
<g filter="url(#filter0_d)">
<path d="M76.5182 86.2276C77.1044 80.7237 76.9282 79.9206 80.5604 80.8088L81.4846 80.9021C84.2788 81.0441 87.9326 80.3951 90.1155 79.2716C94.7366 76.8543 97.4769 72.8146 92.9205 73.8772C82.5275 76.2946 81.7723 72.3238 81.7723 72.3238C92.7515 53.9504 97.3438 30.6287 93.3772 24.922C82.5742 9.34721 63.8704 16.7128 63.5575 16.9075L63.4568 16.9278C61.407 16.4411 59.1414 16.1571 56.5162 16.1166C51.8123 16.0355 48.2449 17.5078 45.5334 19.8237C45.5334 19.8237 12.1714 4.3219 13.7214 39.3206C14.0522 46.7673 23.1794 95.6982 34.0759 80.894C38.064 75.4834 41.912 70.9123 41.912 70.9123C43.818 72.3441 46.1087 73.0742 48.5074 72.8105L48.6944 72.6321C48.6391 73.3331 48.6645 74.0393 48.7699 74.733C45.9649 78.2698 46.792 78.8904 41.182 80.1923C35.5071 81.5105 38.8444 83.8589 41.0165 84.4754C43.6561 85.2217 49.7625 86.2762 53.8909 79.7624L53.7255 80.5046C54.8259 81.4983 54.7504 87.6431 54.9123 92.0316C55.0741 96.4202 55.3294 100.521 56.1242 102.934C56.9189 105.347 57.8503 111.573 65.2226 109.829C71.3829 108.341 76.0939 106.195 76.5254 86.2641" fill="black"/>
<path d="M76.5182 86.2276C77.1044 80.7237 76.9282 79.9206 80.5604 80.8088L81.4846 80.9021C84.2788 81.0441 87.9326 80.3951 90.1155 79.2716C94.7366 76.8543 97.4769 72.8146 92.9205 73.8772C82.5275 76.2946 81.7723 72.3238 81.7723 72.3238C92.7515 53.9504 97.3438 30.6287 93.3772 24.922C82.5742 9.34721 63.8704 16.7128 63.5575 16.9075L63.4568 16.9278C61.407 16.4411 59.1414 16.1571 56.5162 16.1166C51.8123 16.0355 48.2449 17.5078 45.5334 19.8237C45.5334 19.8237 12.1714 4.3219 13.7214 39.3206C14.0522 46.7673 23.1794 95.6982 34.0759 80.894C38.064 75.4834 41.912 70.9123 41.912 70.9123C43.818 72.3441 46.1087 73.0742 48.5074 72.8105L48.6944 72.6321C48.6391 73.3331 48.6645 74.0393 48.7699 74.733C45.9649 78.2698 46.792 78.8904 41.182 80.1923C35.5071 81.5105 38.8444 83.8589 41.0165 84.4754C43.6561 85.2217 49.7625 86.2762 53.8909 79.7624L53.7255 80.5046C54.8259 81.4983 54.7504 87.6431 54.9123 92.0316C55.0741 96.4202 55.3294 100.521 56.1242 102.934C56.9189 105.347 57.8503 111.573 65.2226 109.829C71.3829 108.341 76.0939 106.195 76.5254 86.2641" stroke="black" stroke-width="5.3725"/>
<path d="M92.888 73.9139C82.495 76.3312 81.7398 72.3605 81.7398 72.3605C92.719 53.9871 97.3114 30.6654 93.3483 24.9587C82.5454 9.38387 63.8415 16.7535 63.5286 16.9441L63.4279 16.9644C61.1434 16.4474 58.8208 16.1745 56.4909 16.1492C51.787 16.0681 48.2196 17.5404 45.5081 19.8563C45.5081 19.8563 12.1425 4.3545 13.6961 39.3532C14.0269 46.7999 23.1541 95.7308 34.0506 80.9266C38.0639 75.4836 41.9119 70.9125 41.9119 70.9125C43.8179 72.3443 46.1086 73.0743 48.5073 72.8107L48.6943 72.6322C48.6394 73.3333 48.6647 74.0394 48.7698 74.7332C45.9648 78.27 46.7919 78.8905 41.1818 80.1925C35.507 81.5107 38.8443 83.8591 41.0164 84.4756C43.656 85.2219 49.7624 86.2764 53.8908 79.7626L53.7254 80.5048C54.8258 81.4985 55.5954 86.9659 55.466 91.9223C55.3365 96.8787 55.2502 100.278 56.1133 102.938C56.9764 105.599 57.8394 111.577 65.2117 109.833C71.372 108.345 74.5618 104.479 75.0113 98.0468C75.3278 93.4717 76.0398 94.1449 76.0902 90.0566L76.6656 88.1178C77.3237 81.9122 76.7734 79.9126 80.5674 80.8455L81.4917 80.9388C84.2859 81.0808 87.9433 80.4318 90.0866 79.3083C94.7077 76.891 97.448 72.8512 92.8916 73.9139H92.888Z" fill="#336791"/>
<path d="M63.5258 16.7534C62.375 17.159 82.0966 8.62121 93.3095 24.776C97.2653 30.4827 92.6802 53.8044 81.701 72.1778M54.3339 77.4303C54.0462 88.9735 54.4058 100.598 55.4055 103.388C56.4053 106.179 58.5522 111.703 65.928 109.926C72.0883 108.438 74.3324 105.554 75.3033 99.1904L77.5797 78.8417L54.3339 77.4303ZM45.4944 19.5641C45.4944 19.5641 12.1073 4.16779 13.6608 39.1665C13.9917 46.6132 23.1188 95.5441 34.0153 80.7399C37.9927 75.3333 41.5889 71.103 41.5889 71.103L45.4944 19.5641Z" stroke="white" stroke-width="1.79" stroke-linecap="round" stroke-linejoin="round"/>
<path d="M81.7045 72.1697C81.7045 72.1697 82.4238 76.1445 92.8528 73.719C97.4092 72.6564 94.6653 76.6961 90.0477 79.1134C86.2573 81.1008 77.7559 81.6078 77.6157 78.8701C77.256 71.7925 82.0893 73.9421 81.7405 72.1697C81.424 70.5716 79.2591 69.006 77.835 65.0961C76.5872 61.6891 60.7171 35.5283 82.2368 39.4098C83.0279 39.2273 76.6267 16.2909 56.488 15.9584C36.3493 15.6258 36.9858 43.8835 36.9858 43.8835" stroke="white" stroke-width="1.79" stroke-linecap="round" stroke-linejoin="bevel"/>
<path d="M48.6986 74.5951C45.8936 78.1319 46.7207 78.7525 41.1106 80.0544C35.4358 81.3726 38.7731 83.721 40.9452 84.3375C43.5848 85.0838 49.6912 86.1384 53.8196 79.6205C55.0783 77.633 53.8124 74.4694 52.0862 73.6663C51.2519 73.277 50.1371 72.7902 48.7058 74.5992L48.6986 74.5951Z" stroke="white" stroke-width="1.79" stroke-linejoin="round"/>
<path d="M48.5152 74.5343C48.2275 72.4536 49.1194 69.9836 50.0724 67.0876C51.5037 62.7478 54.805 58.4079 52.1654 44.6299C50.1982 34.3683 36.9894 42.4924 36.9894 43.8836C36.9894 45.2748 37.5864 50.9409 36.7736 57.5318C35.7055 66.1385 41.6285 73.4149 48.4469 72.6726" stroke="white" stroke-width="1.79" stroke-linecap="round" stroke-linejoin="round"/>
<path d="M45.3721 43.6769C45.311 44.1515 46.1453 45.421 47.2278 45.5913C48.3102 45.7616 49.2345 44.772 49.2956 44.2934C49.3567 43.8148 48.5224 43.2956 47.44 43.1253C46.3575 42.955 45.4261 43.2064 45.3721 43.6769V43.6769Z" fill="white" stroke="white" stroke-width="0.5975"/>
<path d="M78.3277 42.7073C78.3852 43.1819 77.5545 44.4514 76.4721 44.6217C75.3896 44.7921 74.4582 43.8024 74.4043 43.3238C74.3503 42.8452 75.1774 42.326 76.2599 42.1557C77.3423 41.9853 78.2738 42.2368 78.3277 42.7073Z" fill="white" stroke="white" stroke-width="0.2975"/>
<path d="M82.1972 39.418C82.377 43.1494 81.4852 45.6844 81.3701 49.6552C81.2047 55.4227 83.8083 62.0258 79.8849 68.637" stroke="white" stroke-width="1.79" stroke-linecap="round" stroke-linejoin="round"/>
</g>
<defs>
<filter id="filter0_d" x="-7" y="-1" width="134" height="134" filterUnits="userSpaceOnUse" color-interpolation-filters="sRGB">
<feFlood flood-opacity="0" result="BackgroundImageFix"/>
<feColorMatrix in="SourceAlpha" type="matrix" values="0 0 0 0 0 0 0 0 0 0 0 0 0 0 0 0 0 0 127 0"/>
<feOffset dy="6"/>
<feGaussianBlur stdDeviation="3.5"/>
<feColorMatrix type="matrix" values="0 0 0 0 0 0 0 0 0 0.278431 0 0 0 0 0.819608 0 0 0 0.25 0"/>
<feBlend mode="normal" in2="BackgroundImageFix" result="effect1_dropShadow"/>
<feBlend mode="normal" in="SourceGraphic" in2="effect1_dropShadow" result="shape"/>
</filter>
</defs>
</svg>
