<svg width="75" height="110" viewBox="0 0 75 110" fill="none" xmlns="http://www.w3.org/2000/svg">
<path d="M37.5 110C58.2107 110 75 108.881 75 107.5C75 106.119 58.2107 105 37.5 105C16.7893 105 0 106.119 0 107.5C0 108.881 16.7893 110 37.5 110Z" fill="#E6E6E6"/>
<path d="M64.1035 25.6523H63.5046V9.40406C63.5046 8.1691 63.2589 6.94623 62.7817 5.80528C62.3045 4.66432 61.605 3.62762 60.7232 2.75438C59.8414 1.88113 58.7946 1.18843 57.6425 0.715833C56.4904 0.243236 55.2556 -4.28517e-06 54.0085 0H19.2479C18.0009 -3.89561e-06 16.7661 0.243237 15.614 0.715834C14.4619 1.18843 13.415 1.88113 12.5332 2.75438C11.6515 3.62762 10.952 4.66432 10.4748 5.80528C9.99754 6.94623 9.75192 8.1691 9.75192 9.40406V98.5433C9.75192 99.7782 9.99754 101.001 10.4748 102.142C10.952 103.283 11.6515 104.32 12.5332 105.193C13.415 106.066 14.4619 106.759 15.614 107.232C16.7661 107.704 18.0009 107.947 19.2479 107.947H54.0085C55.2556 107.947 56.4904 107.704 57.6425 107.232C58.7946 106.759 59.8414 106.066 60.7232 105.193C61.605 104.32 62.3045 103.283 62.7817 102.142C63.2589 101.001 63.5046 99.7782 63.5045 98.5433V37.2181H64.1035V25.6523Z" fill="#3F3D56"/>
<path d="M54.3917 2.44654H49.8542C50.0629 2.95316 50.1426 3.50283 50.0862 4.04712C50.0298 4.59141 49.8391 5.11362 49.531 5.56774C49.2228 6.02186 48.8066 6.39396 48.319 6.65126C47.8314 6.90855 47.2874 7.04315 46.7349 7.04319H26.821C26.2685 7.04315 25.7245 6.90855 25.2369 6.65126C24.7493 6.39396 24.3331 6.02186 24.0249 5.56774C23.7167 5.11362 23.526 4.59141 23.4697 4.04712C23.4133 3.50283 23.4929 2.95316 23.7016 2.44653H19.4636C18.5324 2.44653 17.6102 2.62818 16.7498 2.98111C15.8895 3.33404 15.1077 3.85134 14.4492 4.50347C13.7907 5.1556 13.2683 5.92979 12.912 6.78184C12.5556 7.63389 12.3721 8.54711 12.3721 9.46936V98.4778C12.3721 99.4001 12.5556 100.313 12.912 101.165C13.2683 102.017 13.7907 102.792 14.4492 103.444C15.1077 104.096 15.8895 104.613 16.7498 104.966C17.6102 105.319 18.5324 105.501 19.4636 105.501H54.3917C55.3229 105.501 56.2451 105.319 57.1055 104.966C57.9658 104.613 58.7476 104.096 59.4061 103.444C60.0646 102.792 60.587 102.017 60.9434 101.165C61.2997 100.313 61.4832 99.4001 61.4832 98.4778V9.46937C61.4832 8.54712 61.2997 7.6339 60.9433 6.78185C60.587 5.9298 60.0646 5.15561 59.4061 4.50348C58.7476 3.85135 57.9658 3.33405 57.1055 2.98112C56.2451 2.62819 55.3229 2.44654 54.3917 2.44654Z" fill="white"/>
<path d="M41.7837 26.3579H29.4034V27.4965H41.7837V26.3579Z" fill="#6C63FF"/>
<path d="M50.9812 30.2966H29.4034V31.4352H50.9812V30.2966Z" fill="#E6E6E6"/>
<path d="M50.9601 34.2352H29.4034V35.3738H50.9601V34.2352Z" fill="#E6E6E6"/>
<path d="M26.8377 26.3749H17.6401V35.4834H26.8377V26.3749Z" fill="#6C63FF"/>
<path d="M41.7837 50.2677H29.4034V51.4063H41.7837V50.2677Z" fill="#6C63FF"/>
<path d="M50.9812 54.2064H29.4034V55.345H50.9812V54.2064Z" fill="#E6E6E6"/>
<path d="M50.9601 58.145H29.4034V59.2836H50.9601V58.145Z" fill="#E6E6E6"/>
<path d="M26.8377 50.2847H17.6401V59.3932H26.8377V50.2847Z" fill="#6C63FF"/>
<path d="M41.7837 74.1776H29.4034V75.3162H41.7837V74.1776Z" fill="#6C63FF"/>
<path d="M50.9812 78.1162H29.4034V79.2548H50.9812V78.1162Z" fill="#E6E6E6"/>
<path d="M50.9601 82.0549H29.4034V83.1935H50.9601V82.0549Z" fill="#E6E6E6"/>
</svg>
