<svg class='css3' width="120" height="120" viewBox="0 0 120 126" fill="none" xmlns="http://www.w3.org/2000/svg">
<g clip-path="url(#clip0)" filter="url(#filter0_d)">
<path d="M90.3479 104.152L59.9995 112.323L29.6507 104.152L22.6474 28.2806H97.3521L90.3479 104.152Z" fill="#2062AF"/>
<path d="M59.9993 34.4263V105.806L60.0679 105.825L84.6276 99.2116L90.2965 34.4263H59.9993V34.4263Z" fill="#3C9CD7"/>
<path d="M42.7754 17.1338V12.6179H49.3641V7.67651H37.834V21.6429H49.3641V17.1338H42.7754ZM61.2163 12.6179H65.8226V7.67651H54.2914V12.6179C55.8341 14.1606 56.6387 14.899 58.8699 17.1302C57.5656 17.1302 54.2914 17.1349 54.2914 17.1346V21.6429H65.8226V17.1338L61.2163 12.6179ZM77.5596 12.6179H82.1657V7.67651H70.6341V12.6179C72.1768 14.1606 72.9818 14.899 75.213 17.1302C73.9091 17.1302 70.6341 17.1349 70.6341 17.1346V21.6429H82.1659V17.1338L77.5596 12.6179V12.6179Z" fill="grey"/>
<path d="M59.9723 53.3971L38.2509 62.4435L38.9712 71.4001L59.9723 62.4208L82.3119 52.8695L83.2381 43.7073L59.9723 53.3971Z" fill="white"/>
<path d="M38.2507 62.4432L38.971 71.3997L59.9721 62.4205V53.3969L38.2507 62.4432V62.4432Z" fill="url(#paint0_linear)"/>
<path d="M83.2381 43.7074L59.9724 53.397V62.4207L82.3119 52.8694L83.2381 43.7074Z" fill="url(#paint1_linear)"/>
<path d="M38.2842 62.4434L39.0047 71.4L71.2282 71.5027L70.5074 83.4447L59.904 86.4298L49.711 83.8562L49.0934 76.4439H39.6223L40.8578 90.7536L60.0069 96.4156L79.0522 90.8563L81.5232 62.4434H38.2842V62.4434Z" fill="url(#paint2_linear)"/>
<path opacity="0.05" d="M59.9722 62.4434H38.2509L38.9712 71.4L59.9722 71.467V62.4434ZM59.9722 86.4013L59.8693 86.43L49.6777 83.8564L49.0601 76.4441H39.5893L40.8245 90.7538L59.9722 96.4158V86.4013Z" fill="grey"/>
<path d="M36.2947 43.7074H83.2383L82.3121 52.8696H37.427L36.2947 43.7074V43.7074Z" fill="url(#paint3_linear)"/>
<path opacity="0.05" d="M59.9724 43.7074H36.2947L37.427 52.8696H59.9724V43.7074V43.7074Z" fill="grey"/>
</g>
<defs>
<filter id="filter0_d" x="-7" y="-1" width="134" height="134" filterUnits="userSpaceOnUse" color-interpolation-filters="sRGB">
<feFlood flood-opacity="0" result="BackgroundImageFix"/>
<feColorMatrix in="SourceAlpha" type="matrix" values="0 0 0 0 0 0 0 0 0 0 0 0 0 0 0 0 0 0 127 0"/>
<feOffset dy="6"/>
<feGaussianBlur stdDeviation="3.5"/>
<feColorMatrix type="matrix" values="0 0 0 0 0 0 0 0 0 0.278431 0 0 0 0 0.819608 0 0 0 0.25 0"/>
<feBlend mode="normal" in2="BackgroundImageFix" result="effect1_dropShadow"/>
<feBlend mode="normal" in="SourceGraphic" in2="effect1_dropShadow" result="shape"/>
</filter>
<linearGradient id="paint0_linear" x1="49.1114" y1="71.4" x2="49.1114" y2="53.3971" gradientUnits="userSpaceOnUse">
<stop offset="0.387" stop-color="#D1D3D4" stop-opacity="0"/>
<stop offset="1" stop-color="#D1D3D4"/>
</linearGradient>
<linearGradient id="paint1_linear" x1="71.605" y1="62.4209" x2="71.605" y2="43.7076" gradientUnits="userSpaceOnUse">
<stop offset="0.387" stop-color="#D1D3D4" stop-opacity="0"/>
<stop offset="1" stop-color="#D1D3D4"/>
</linearGradient>
<linearGradient id="paint2_linear" x1="38.2842" y1="79.4297" x2="81.523" y2="79.4297" gradientUnits="userSpaceOnUse">
<stop stop-color="#E8E7E5"/>
<stop offset="1" stop-color="white"/>
</linearGradient>
<linearGradient id="paint3_linear" x1="36.2947" y1="48.2885" x2="83.2381" y2="48.2885" gradientUnits="userSpaceOnUse">
<stop stop-color="#E8E7E5"/>
<stop offset="1" stop-color="white"/>
</linearGradient>
<clipPath id="clip0">
<rect width="120" height="120" fill="white"/>
</clipPath>
</defs>
</svg>
