<svg width="120" height="120" class='js' viewBox="0 0 120 128" fill="none" xmlns="http://www.w3.org/2000/svg">
<g filter="url(#filter0_d)">
<path d="M17.0174 107.862L7.21976 0.00598145L112.77 0.0471472L103.055 107.78L59.9127 119.965L17.0174 107.862ZM95.11 101.975L103.302 9.59775H60.0774L60.4067 111.485L95.11 101.975V101.975ZM56.0431 23.1415H45.5457L45.4222 78.4279L25.0448 72.8705L25.086 85.5086L56.0431 93.8653V23.1415V23.1415Z" fill="#D4B830"/>
<path d="M60.0774 9.55682H103.302L95.11 101.934L60.0774 111.444V9.55682ZM92.887 86.4556L95.7275 51.917L74.7326 54.2635V35.821L97.1271 35.7386L98.0328 23.1417L64.2352 23.3064L64.688 69.1657L85.1065 65.6666L84.8184 75.8759L64.2352 81.351L64.441 93.8656L92.887 86.4556Z" fill="#D4B830"/>
</g>
<defs>
<filter id="filter0_d" x="-4" y="0" width="128" height="128" filterUnits="userSpaceOnUse" color-interpolation-filters="sRGB">
<feFlood flood-opacity="0" result="BackgroundImageFix"/>
<feColorMatrix in="SourceAlpha" type="matrix" values="0 0 0 0 0 0 0 0 0 0 0 0 0 0 0 0 0 0 127 0"/>
<feOffset dy="4"/>
<feGaussianBlur stdDeviation="2"/>
<feColorMatrix type="matrix" values="0 0 0 0 0 0 0 0 0 0 0 0 0 0 0 0 0 0 0.25 0"/>
<feBlend mode="normal" in2="BackgroundImageFix" result="effect1_dropShadow"/>
<feBlend mode="normal" in="SourceGraphic" in2="effect1_dropShadow" result="shape"/>
</filter>
</defs>
</svg>
