<svg class='react-svg' width="120" height="120" viewBox="0 0 128 128" fill="none" xmlns="http://www.w3.org/2000/svg">
<g filter="url(#filter0_d)">
<path d="M64.0214 71.9171C69.9433 71.9171 74.744 66.5218 74.744 59.8664C74.744 53.211 69.9433 47.8157 64.0214 47.8157C58.0994 47.8157 53.2987 53.211 53.2987 59.8664C53.2987 66.5218 58.0994 71.9171 64.0214 71.9171Z" fill="#00D8FF"/>
<path d="M64.0214 87.4727C48.9626 87.4727 35.8049 85.4803 25.958 81.6874C19.5714 79.2389 14.146 75.9741 10.2798 72.2533C6.17871 68.3164 4 64.0194 4 59.8665C4 51.8967 11.775 44.095 24.8259 39.0058C35.5059 34.8289 49.4325 32.5004 64 32.5004C78.3111 32.5004 92.0456 34.7569 102.661 38.8858C108.877 41.2863 114.11 44.407 117.827 47.8638C121.864 51.6567 124 55.8096 124 59.8665C124 68.1484 115.307 76.5263 101.294 81.7354C91.3834 85.4323 78.1403 87.4727 64.0214 87.4727ZM64.0214 38.2617C50.2015 38.2617 36.5311 40.5182 26.5347 44.431C14.5304 49.1361 9.14774 55.5695 9.14774 59.8665C9.14774 64.3315 14.9363 71.3651 27.6241 76.2382C36.937 79.815 49.5393 81.7114 64.0214 81.7114C77.6063 81.7114 90.2727 79.791 99.6924 76.2622C112.871 71.3411 118.895 64.3075 118.895 59.8665C118.895 57.586 117.357 54.8974 114.559 52.2808C111.334 49.2561 106.634 46.4955 101.017 44.311C90.9135 40.4221 77.7771 38.2617 64.0214 38.2617Z" fill="#00D8FF"/>
<path d="M39.6924 119.928C37.5137 119.928 35.5913 119.4 33.968 118.344C27.8377 114.359 25.7017 102.884 28.2862 87.6407C30.4009 75.1339 35.57 60.4426 42.8537 46.2554C50.0093 32.3323 58.596 20.0895 67.0758 11.8077C72.0313 6.95858 77.0509 3.40578 81.5792 1.53336C86.5134 -0.507101 90.7853 -0.5071 93.9039 1.50935C100.291 5.63828 102.405 18.3131 99.4148 34.5408C97.3001 46.0634 92.2592 59.9625 85.2104 73.7176C77.6917 88.3609 69.575 100.172 61.7359 107.877C56.6522 112.87 51.419 116.519 46.6344 118.416C44.1353 119.424 41.7857 119.928 39.6924 119.928ZM45.0538 47.6957L47.2752 49.1361C40.3759 62.5791 35.2709 77.0063 33.3058 88.721C30.9349 102.764 33.2204 111.214 36.5098 113.351C37.3215 113.879 38.3895 114.167 39.6924 114.167C43.9431 114.167 50.6287 111.142 58.361 103.556C65.7729 96.2827 73.5265 84.9521 80.7675 70.8609C87.56 57.634 92.3873 44.335 94.3952 33.4125C97.1933 18.1211 94.7797 8.75898 91.3407 6.52648C89.5892 5.39823 86.7483 5.54226 83.3307 6.95858C79.3792 8.59094 74.9149 11.7837 70.4294 16.1767C62.3767 24.0504 54.1531 35.7651 47.2752 49.1601L45.0538 47.6957Z" fill="#00D8FF"/>
<path d="M88.3503 120C82.5404 120 75.1712 116.063 67.4817 108.621C58.895 100.316 50.1588 87.9528 42.8537 73.7656C35.6768 59.8425 30.5504 45.3672 28.393 32.9564C27.1328 25.7068 26.8978 19.0573 27.7095 13.7041C28.6066 7.87077 30.7213 3.71784 33.8612 1.67738C40.2264 -2.47555 51.0559 1.79741 62.0776 12.8159C69.8953 20.6176 78.0976 32.4763 85.1677 46.2074C92.7077 60.8507 97.77 74.6538 99.7779 86.1284C101.081 93.57 101.294 100.484 100.376 106.101C99.3934 112.078 97.172 116.327 93.968 118.416C92.366 119.472 90.4649 120 88.3503 120ZM47.2966 70.8849C54.2172 84.328 62.8039 96.4987 70.8352 104.252C80.4685 113.567 88.1153 115.583 91.4261 113.423C94.8651 111.19 97.3856 102.044 94.7796 87.2566C92.8573 76.4062 88.0085 63.2032 80.7462 49.112C73.9324 35.8851 66.0933 24.5305 58.6814 17.1369C48.3005 6.76652 39.8847 4.438 36.4457 6.6705C34.6942 7.79876 33.3913 10.6554 32.7718 14.6883C32.0669 19.3454 32.2805 25.2987 33.434 31.8522C35.4845 43.6388 40.3973 57.4899 47.2966 70.8849Z" fill="#00D8FF"/>
</g>
<defs>
<filter id="filter0_d" x="0" y="0" width="120" height="120" filterUnits="userSpaceOnUse" color-interpolation-filters="sRGB">
<feFlood flood-opacity="0" result="BackgroundImageFix"/>
<feColorMatrix in="SourceAlpha" type="matrix" values="0 0 0 0 0 0 0 0 0 0 0 0 0 0 0 0 0 0 127 0"/>
<feOffset dy="4"/>
<feGaussianBlur stdDeviation="2"/>
<feColorMatrix type="matrix" values="0 0 0 0 0 0 0 0 0 0 0 0 0 0 0 0 0 0 0.25 0"/>
<feBlend mode="normal" in2="BackgroundImageFix" result="effect1_dropShadow"/>
<feBlend mode="normal" in="SourceGraphic" in2="effect1_dropShadow" result="shape"/>
</filter>
</defs>
</svg>
